<?xml version="1.0" encoding="utf-8"?>
<!-- Generator: Adobe Illustrator 27.2.0, SVG Export Plug-In . SVG Version: 6.00 Build 0)  -->
<svg version="1.1" id="Layer_1" xmlns="http://www.w3.org/2000/svg" xmlns:xlink="http://www.w3.org/1999/xlink" x="0px" y="0px"
	 viewBox="0 0 154 36" style="enable-background:new 0 0 154 36;" xml:space="preserve">
<style type="text/css">
	.st0{fill-rule:evenodd;clip-rule:evenodd;fill:#9E1B1F;}
	
		.st1{clip-path:url(#SVGID_00000175283085795212408910000018022798652327492016_);fill-rule:evenodd;clip-rule:evenodd;fill:url(#SVGID_00000140696425080815677740000016913759307285998520_);}
	.st2{fill-rule:evenodd;clip-rule:evenodd;fill:#009093;}
	
		.st3{clip-path:url(#SVGID_00000065056825376365405600000017342294623432588449_);fill-rule:evenodd;clip-rule:evenodd;fill:url(#SVGID_00000103963921175397602240000001364136594328273286_);}
	.st4{fill-rule:evenodd;clip-rule:evenodd;fill:#F2C217;}
	
		.st5{clip-path:url(#SVGID_00000083071361455379445360000014680207401036850836_);fill-rule:evenodd;clip-rule:evenodd;fill:url(#SVGID_00000064329244142939461040000008969293652195183271_);}
	.st6{fill-rule:evenodd;clip-rule:evenodd;fill:#04A5CF;}
	
		.st7{clip-path:url(#SVGID_00000161633878015064519860000002970426690727910333_);fill-rule:evenodd;clip-rule:evenodd;fill:url(#SVGID_00000102504754027234244670000009037615064224184751_);}
	.st8{fill:#FFFFFF;}
	.st9{fill:#7F7F7F;}
</style>
<g>
	<path class="st0" d="M33.5,21.8c-1-0.6-2.4-0.4-3,0.7c-0.6,1-0.4,2.4,0.7,3c1,0.6,2.3,0.3,3-0.7C34.8,23.8,34.6,22.4,33.5,21.8z"/>
	<path class="st0" d="M35.1,14.9c-0.4-0.7-1.1-0.4-1.1-0.4l-10.4,4.8c0,0-0.9,0.4-1.1,1.1c-0.2,0.6,0.2,1.3,0.4,1.7L30.8,35
		c0.2,0.3,0.6,0.7,1.2,0.3c0.6-0.3,0.4-0.9,0.2-1.3l-5.3-10.5c-0.8-1.6-0.7-2.2,0.9-3.1c2.8-1.7,4.2-2.6,7-4.3
		C35,16,35.4,15.6,35.1,14.9z"/>
	<g>
		<g>
			<g>
				<defs>
					<path id="SVGID_1_" d="M34,14.5l-10.4,4.8c0,0-0.9,0.4-1.1,1.1c-0.2,0.6,0.2,1.3,0.4,1.7L30.8,35c0.2,0.3,0.6,0.7,1.2,0.3
						c0.6-0.3,0.4-0.9,0.2-1.3l-5.3-10.5c-0.8-1.6-0.7-2.2,0.9-3.1c2.8-1.7,4.2-2.6,7-4.3c0.2-0.1,0.6-0.5,0.3-1.2
						C34.7,14.2,34,14.5,34,14.5z"/>
				</defs>
				<clipPath id="SVGID_00000077321010818543858860000017490263178628988070_">
					<use xlink:href="#SVGID_1_"  style="overflow:visible;"/>
				</clipPath>
				
					<linearGradient id="SVGID_00000136388808749758218040000004009984691022728383_" gradientUnits="userSpaceOnUse" x1="-327.6372" y1="-669.2063" x2="-331.9444" y2="-666.3045" gradientTransform="matrix(0.539 -0.8423 -0.8423 -0.539 -356.4061 -618.5886)">
					<stop  offset="0" style="stop-color:#000000;stop-opacity:0"/>
					<stop  offset="1" style="stop-color:#000000"/>
				</linearGradient>
				
					<path style="clip-path:url(#SVGID_00000077321010818543858860000017490263178628988070_);fill-rule:evenodd;clip-rule:evenodd;fill:url(#SVGID_00000136388808749758218040000004009984691022728383_);" d="
					M26.5,22.5c-0.5-1.2,5.7-2.6,5.7-2.6l-1.1-1.6L30.8,16c0,0-3.4,0.1-3.5,1.6C24.4,18.8,26.4,22.3,26.5,22.5z"/>
			</g>
		</g>
	</g>
	<path class="st2" d="M7.1,18.2c1.2,0,2.2-1,2.2-2.2s-1-2.2-2.2-2.2s-2.2,1-2.2,2.2S5.9,18.2,7.1,18.2z"/>
	<path class="st2" d="M16.8,17.1l-6.2-9.6c0,0-0.5-0.6-1.1-0.2C8.9,7.7,9,8.2,9.1,8.4c1.5,3,2.2,4.4,3.6,7.4c0.8,1.6,0.6,2.2-1,3.1
		l-10.1,6c-0.3,0.2-0.8,0.6-0.5,1.2s0.9,0.5,1.2,0.4l13.6-6.7c0.3-0.2,1-0.6,1.2-1.2C17.3,17.9,16.8,17.1,16.8,17.1z"/>
	<g>
		<g>
			<g>
				<defs>
					<path id="SVGID_00000052081168211364826720000009943299536399753128_" d="M10.6,7.5l6.2,9.6c0,0,0.5,0.8,0.3,1.5
						c-0.2,0.6-0.9,1-1.2,1.2L2.3,26.5c-0.3,0.1-0.9,0.2-1.2-0.4s0.2-1,0.5-1.2l10.1-6c1.6-0.9,1.8-1.5,1-3.1
						c-1.4-3-2.1-4.4-3.6-7.4C9,8.2,8.9,7.7,9.5,7.3C10.1,6.9,10.6,7.5,10.6,7.5z"/>
				</defs>
				<clipPath id="SVGID_00000068659234661063123010000001430732203437837486_">
					<use xlink:href="#SVGID_00000052081168211364826720000009943299536399753128_"  style="overflow:visible;"/>
				</clipPath>
				
					<linearGradient id="SVGID_00000004531364041699271560000005592772552357998783_" gradientUnits="userSpaceOnUse" x1="-639.8105" y1="82.7968" x2="-644.1176" y2="85.6984" gradientTransform="matrix(0 -1 1 0 -71.3247 -627.5137)">
					<stop  offset="0" style="stop-color:#000000;stop-opacity:0"/>
					<stop  offset="1" style="stop-color:#000000"/>
				</linearGradient>
				
					<path style="clip-path:url(#SVGID_00000068659234661063123010000001430732203437837486_);fill-rule:evenodd;clip-rule:evenodd;fill:url(#SVGID_00000004531364041699271560000005592772552357998783_);" d="
					M14.6,13.7c0.7-1.3-2.1-3.3-2.1-3.3L11,12.2L9.2,13c0,0,4.5,4.5,3.4,5.3C12.8,18.1,16.3,16.3,14.6,13.7z"/>
			</g>
		</g>
	</g>
	<path class="st4" d="M17,30.2c-1-0.6-2.4-0.3-3,0.7s-0.3,2.4,0.7,3s2.4,0.3,3-0.7C18.3,32.2,18,30.8,17,30.2z"/>
	<path class="st4" d="M24.9,33.6l-4.8-10.4c0,0-0.4-0.9-1.1-1.1c-0.6-0.2-1.3,0.2-1.7,0.4l-12.8,8c-0.3,0.2-0.7,0.6-0.3,1.2
		c0.3,0.6,0.9,0.3,1.3,0.2L16,26.6c1.6-0.8,2.2-0.7,3.2,0.8c1.7,2.8,2.6,4.2,4.3,7c0.1,0.2,0.5,0.6,1.2,0.3
		C25.2,34.4,24.9,33.7,24.9,33.6z"/>
	<g>
		<g>
			<g>
				<defs>
					<path id="SVGID_00000083090344306847452240000005225908536074099892_" d="M24.9,33.6l-4.8-10.4c0,0-0.4-0.9-1.1-1.1
						c-0.6-0.2-1.3,0.2-1.7,0.4l-12.8,8c-0.3,0.2-0.7,0.6-0.3,1.2c0.3,0.6,0.9,0.3,1.3,0.2L16,26.6c1.6-0.8,2.2-0.7,3.2,0.8
						c1.7,2.8,2.6,4.2,4.3,7c0.1,0.2,0.5,0.6,1.2,0.3C25.2,34.4,24.9,33.7,24.9,33.6z"/>
				</defs>
				<clipPath id="SVGID_00000051355566322664550460000016992078057936821436_">
					<use xlink:href="#SVGID_00000083090344306847452240000005225908536074099892_"  style="overflow:visible;"/>
				</clipPath>
				
					<linearGradient id="SVGID_00000046318386960538862600000018149493275690868385_" gradientUnits="userSpaceOnUse" x1="95.1312" y1="-442.7365" x2="90.8243" y2="-439.8348" gradientTransform="matrix(0.8452 0.5345 0.5345 -0.8452 177.5416 -394.6934)">
					<stop  offset="0" style="stop-color:#000000;stop-opacity:0"/>
					<stop  offset="1" style="stop-color:#000000"/>
				</linearGradient>
				
					<path style="clip-path:url(#SVGID_00000051355566322664550460000016992078057936821436_);fill-rule:evenodd;clip-rule:evenodd;fill:url(#SVGID_00000046318386960538862600000018149493275690868385_);" d="
					M16.9,26.2c1.2-0.5,2.6,5.7,2.6,5.7l1.6-1.1l2.2-0.4c0,0-0.1-3.4-1.6-3.5C20.6,24.1,17.1,26.1,16.9,26.2z"/>
			</g>
		</g>
	</g>
	<circle class="st6" cx="23.3" cy="6.7" r="2.2"/>
	<path class="st6" d="M32,9.1c-0.4-0.6-0.9-0.5-1.1-0.4c-3,1.5-4.4,2.2-7.4,3.6c-1.6,0.8-2.2,0.6-3.1-1l-6-10.1
		c-0.2-0.3-0.6-0.8-1.2-0.5c-0.6,0.3-0.5,0.9-0.4,1.2l6.7,13.6c0.2,0.3,0.6,1,1.2,1.2c0.7,0.2,1.5-0.3,1.5-0.3l9.6-6.2
		C31.8,10.2,32.4,9.7,32,9.1z"/>
	<g>
		<g>
			<g>
				<defs>
					<path id="SVGID_00000118365146814971742570000010103933018614782895_" d="M31.8,10.2l-9.6,6.2c0,0-0.8,0.5-1.5,0.3
						c-0.6-0.2-1-0.9-1.2-1.2L12.8,1.9c-0.1-0.3-0.2-0.9,0.4-1.2c0.6-0.3,1,0.2,1.2,0.5l6,10.1c0.9,1.6,1.5,1.8,3.1,1
						c3-1.4,4.4-2.1,7.4-3.6c0.2-0.1,0.7-0.2,1.1,0.4C32.4,9.7,31.8,10.2,31.8,10.2z"/>
				</defs>
				<clipPath id="SVGID_00000007428162079846844970000012498544315267337148_">
					<use xlink:href="#SVGID_00000118365146814971742570000010103933018614782895_"  style="overflow:visible;"/>
				</clipPath>
				
					<linearGradient id="SVGID_00000179640697949128382300000017325301392052649618_" gradientUnits="userSpaceOnUse" x1="27.0084" y1="1.1022" x2="22.7015" y2="4.0038" gradientTransform="matrix(1 0 0 1 0 10)">
					<stop  offset="0" style="stop-color:#000000;stop-opacity:0"/>
					<stop  offset="1" style="stop-color:#000000"/>
				</linearGradient>
				
					<path style="clip-path:url(#SVGID_00000007428162079846844970000012498544315267337148_);fill-rule:evenodd;clip-rule:evenodd;fill:url(#SVGID_00000179640697949128382300000017325301392052649618_);" d="
					M25.6,14.2c1.3,0.7,3.3-2.1,3.3-2.1l-1.7-1.5l-0.8-1.8c0,0-4.5,4.5-5.3,3.4C21.2,12.4,23,15.9,25.6,14.2z"/>
			</g>
		</g>
	</g>
</g>
<path class="st8" d="M50.8,13.3l6.4,10.3h-4.5l-4.5-7.4l-2.3,2.5v4.8h-3.8V6.2h3.8v7.4l0,0l2.6-3.2l3.6-4.3h4.6L50.8,13.3z
	 M61.5,12.7L61.5,12.7l-0.1-1.4H58v12.4h3.6v-7.4c0-1.2,0.8-1.9,1.8-1.9c0.7,0,1.4,0.1,2.3,0.6l1.2-3.1c-0.9-0.6-1.6-0.8-2.6-0.8
	C63.2,11.1,62.1,11.8,61.5,12.7z M68,9.3h3.6V6.2H68V9.3z M68,23.6h3.6V11.2H68V23.6z M79.8,16c-1.9-0.2-2.5-0.5-2.5-1
	c0-0.3,0.4-0.8,1.4-0.8c0.7,0,2,0.1,3.4,1l1.6-2.6c-1.5-1.1-3.2-1.4-5-1.4c-2.5,0-4.7,1.3-4.7,4c0,2.9,2.5,3.4,5,3.6
	c1.3,0.1,1.5,0.6,1.5,1.1s-0.7,0.9-1.6,0.9c-1.3,0-2.7-0.2-3.9-1.4l-1.7,2.5c1.9,1.7,3.7,1.9,5.5,1.9c2.7,0,5.2-1.4,5.2-4
	C84,17,82.1,16.3,79.8,16z M92.4,11.1c-0.9,0-2.2,0.4-2.9,1h-0.1V5.5h-3.6v18.1h3.6v-7.3c0-1.2,0.8-1.9,1.9-1.9c1,0,1.7,0.6,1.7,1.9
	v7.3h3.5v-8C96.6,12.7,94.7,11.1,92.4,11.1z M109.5,15.3v8.3H106v-1.1h-0.1c-0.9,1-2.2,1.3-3,1.3c-2.4,0-4.1-1.1-4.1-3.8
	c0-2.1,1.6-3.8,4.5-3.8h2.8v-0.4c0-0.5-0.2-1.5-2.1-1.5c-1.1,0-2.1,0.2-2.9,1l-1.7-2.4c1.5-1.3,3.3-1.6,5-1.6
	C107.1,11.1,109.5,12.1,109.5,15.3z M105.9,18.7h-2.3c-1.3,0-1.5,0.5-1.5,0.9c0,0.3,0.2,1.1,1.7,1.1c1.1,0,2.1-0.5,2.1-1.7
	C105.9,19,105.9,18.7,105.9,18.7z M126.1,15c-0.3,1.4-0.6,3.1-0.9,4.5h-0.1l-1.2-4.5l-2.4-8.7h-1.8l-2.4,8.6l-1.1,4.7h-0.1l-1-4.7
	l-1.9-8.5h-2.4l4.4,17.4h1.9l2.4-8.9l1.1-4.3h0.1l1.2,4.6l2.3,8.6h1.9l4.4-17.4h-2.4L126.1,15z M141,16.5v1.6h-8v0.2
	c0,1.9,1.1,3.5,3.2,3.5c0.8,0,2-0.4,2.8-1.2l1.3,1.5c-1.2,1.1-2.7,1.6-4.2,1.6c-2.5,0-5.2-1.2-5.2-6.3c0-4.9,2.8-6.4,5.2-6.4
	C138.8,11.1,141,13.1,141,16.5z M138.9,16.4c-0.1-2.2-1.2-3.4-2.9-3.4s-2.8,1.2-2.9,3.4H138.9z M153,17.2c0,3.1-0.7,6.5-4.4,6.5
	c-1.2,0-2.5-0.3-3.4-1.5h-0.1v1.4h-2V5.5h2v7.1h0.1c1-1.1,2.2-1.5,3.4-1.5C152.1,11.1,153,14.2,153,17.2z M150.9,17.4
	c0-2-0.3-4.3-2.9-4.3c-2.5,0-2.8,2.4-2.8,4.3c0,1.8,0.3,4.5,2.8,4.5C150.6,21.9,150.9,19.3,150.9,17.4z"/>
<path class="st9" d="M42.8,29c0,0.1,0,0.2,0,0.3c0,0.5,0.2,0.9,0.9,0.9c0.5,0,0.9-0.3,1.1-0.7l0.5,0.3c-0.4,0.6-1,1-1.7,1
	c-0.9,0-1.4-0.6-1.4-1.4c0-0.1,0-0.3,0-0.4l0.3-1.2c0.2-0.9,0.7-1.6,1.8-1.6c0.7,0,1.3,0.4,1.4,1l-0.6,0.2c-0.1-0.3-0.4-0.7-0.9-0.7
	c-0.8,0-1.1,0.6-1.2,1.2L42.8,29z M47.6,27.9L47.6,27.9l0.1-0.4h-0.5l-0.6,3.3H47l0.4-1.9c0.1-0.5,0.5-0.8,0.9-0.8
	c0.1,0,0.3,0,0.4,0.1l0.3-0.5c-0.1-0.1-0.2-0.1-0.5-0.1C48.2,27.4,47.9,27.5,47.6,27.9z M52.6,28.3c0,0.5-0.4,1.1-1.9,1.1
	c-0.1,0-0.2,0-0.3,0c0,0.1,0,0.2,0,0.2c0,0.5,0.2,0.7,0.6,0.7c0.3,0,0.7-0.2,0.9-0.3l0.3,0.4c-0.3,0.3-0.8,0.4-1.2,0.4
	c-0.7,0-1.1-0.4-1.1-1.2c0-1,0.5-2.2,1.6-2.2C52.2,27.4,52.6,27.7,52.6,28.3z M52.1,28.3c0-0.3-0.2-0.4-0.6-0.4c-0.6,0-0.9,0.5-1,1
	c0.1,0,0.2,0,0.3,0C51.9,28.9,52.1,28.5,52.1,28.3z M56.4,27.4h0.5l-0.6,3.3h-0.5l0.1-0.4l0,0c-0.3,0.3-0.5,0.4-0.9,0.4
	c-0.7,0-1-0.5-1-1.1c0-0.9,0.5-2.2,1.5-2.2c0.3,0,0.7,0.1,0.8,0.4l0,0L56.4,27.4z M56.1,28.6c0-0.4-0.1-0.7-0.6-0.7
	c-0.8,0-1.1,1.1-1.1,1.7c0,0.3,0.1,0.7,0.6,0.7C55.8,30.3,56.1,29.2,56.1,28.6z M59.4,26.6h-0.5l-0.2,0.8h-0.4l-0.1,0.5h0.4l-0.4,2
	c-0.1,0.5,0.2,0.8,0.6,0.8h0.4l0.1-0.5H59c-0.3,0-0.3-0.2-0.2-0.4l0.4-1.9h0.5l0.1-0.5h-0.5L59.4,26.6z M63.6,28.3
	c0,0.5-0.4,1.1-1.9,1.1c-0.1,0-0.2,0-0.3,0c0,0.1,0,0.2,0,0.2c0,0.5,0.2,0.7,0.6,0.7c0.3,0,0.7-0.2,0.9-0.3l0.3,0.4
	c-0.3,0.3-0.8,0.4-1.2,0.4c-0.7,0-1.1-0.4-1.1-1.2c0-1,0.5-2.2,1.6-2.2C63.1,27.4,63.6,27.7,63.6,28.3z M63,28.3
	c0-0.3-0.2-0.4-0.6-0.4c-0.6,0-0.9,0.5-1,1c0.1,0,0.2,0,0.3,0C62.9,28.9,63,28.5,63,28.3z M73,27.8c0.1-0.6,0.5-1.2,1.2-1.2
	c0.5,0,0.8,0.3,0.9,0.7l0.6-0.2c-0.2-0.6-0.7-1-1.4-1c-1.1,0-1.6,0.8-1.8,1.6L72.2,29c0,0.1,0,0.3,0,0.4c0,0.8,0.5,1.4,1.4,1.4
	c0.7,0,1.4-0.3,1.7-1l-0.5-0.3c-0.2,0.4-0.7,0.7-1.1,0.7c-0.7,0-0.9-0.4-0.9-0.9c0-0.1,0-0.2,0-0.3L73,27.8z M79.3,28.6
	c0,1-0.4,2.2-1.6,2.2c-0.8,0-1.2-0.4-1.2-1.1c0-1.2,0.5-2.2,1.6-2.2C78.8,27.4,79.3,27.9,79.3,28.6z M78.8,28.6
	c0-0.5-0.3-0.7-0.7-0.7c-0.8,0-1,1-1,1.7c0,0.3,0.1,0.7,0.7,0.7C78.5,30.2,78.8,29.3,78.8,28.6z M84.7,27.4c-0.4,0-0.8,0.1-1.1,0.5
	l0,0c-0.2-0.3-0.4-0.5-0.9-0.5c-0.3,0-0.7,0.1-1,0.4l0,0l0.1-0.4h-0.5l-0.6,3.3h0.5l0.4-2c0.1-0.5,0.5-0.8,0.9-0.8
	c0.5,0,0.7,0.3,0.6,0.8l-0.4,2h0.5l0.4-2c0.1-0.5,0.5-0.8,1-0.8s0.6,0.3,0.5,0.8l-0.4,2h0.5l0.4-2.1C85.7,27.9,85.3,27.4,84.7,27.4z
	 M91.1,27.4c-0.4,0-0.8,0.1-1.1,0.5l0,0c-0.2-0.3-0.4-0.5-0.9-0.5c-0.3,0-0.7,0.1-1,0.4l0,0l0.1-0.4h-0.5L87,30.7h0.5l0.4-2
	c0.1-0.5,0.5-0.8,0.9-0.8c0.5,0,0.7,0.3,0.6,0.8l-0.4,2h0.5l0.4-2c0.1-0.5,0.5-0.8,1-0.8s0.6,0.3,0.5,0.8l-0.4,2h0.5l0.4-2.1
	C92.1,27.9,91.7,27.4,91.1,27.4z M95.6,29.4c-0.1,0.5-0.5,0.8-0.9,0.8c-0.6,0-0.7-0.3-0.6-0.8l0.4-2H94l-0.4,2.2
	c-0.1,0.7,0.2,1.1,0.9,1.1c0.3,0,0.7-0.1,1-0.4l0,0l-0.1,0.4h0.5l0.6-3.3H96L95.6,29.4z M99.8,27.4c-0.3,0-0.7,0.1-1,0.4l0,0
	l0.1-0.4h-0.5l-0.6,3.3h0.5l0.4-2c0.1-0.5,0.5-0.8,0.9-0.8c0.6,0,0.6,0.4,0.5,0.8l-0.4,2h0.5l0.4-2.2
	C100.8,27.8,100.4,27.4,99.8,27.4z M102,30.7h0.5l0.6-3.3h-0.5L102,30.7z M102.8,26.6h0.5l0.1-0.5h-0.5L102.8,26.6z M104.4,29.5
	c0,0.7,0.4,1.2,1.1,1.2c0.4,0,0.9-0.2,1.2-0.4l-0.3-0.4c-0.2,0.1-0.5,0.3-0.8,0.3c-0.5,0-0.7-0.3-0.7-0.8c0-0.7,0.3-1.5,1.1-1.5
	c0.3,0,0.5,0.1,0.7,0.3l0.4-0.4c-0.2-0.3-0.6-0.5-1-0.5C105,27.4,104.4,28.4,104.4,29.5z M110.6,27.4h0.5l-0.6,3.3H110l0.1-0.4l0,0
	c-0.3,0.3-0.5,0.4-0.9,0.4c-0.7,0-1-0.5-1-1.1c0-0.9,0.5-2.2,1.5-2.2c0.3,0,0.7,0.1,0.8,0.4l0,0L110.6,27.4z M110.4,28.6
	c0-0.4-0.1-0.7-0.6-0.7c-0.8,0-1.1,1.1-1.1,1.7c0,0.3,0.1,0.7,0.6,0.7C110.1,30.3,110.4,29.2,110.4,28.6z M113.7,26.6h-0.5l-0.2,0.8
	h-0.4l-0.1,0.5h0.4l-0.4,2c-0.1,0.5,0.2,0.8,0.6,0.8h0.4l0.1-0.5h-0.3c-0.3,0-0.3-0.2-0.2-0.4l0.4-1.9h0.5l0.1-0.5h-0.5L113.7,26.6z
	 M117.8,28.3c0,0.5-0.4,1.1-1.9,1.1c-0.1,0-0.2,0-0.3,0c0,0.1,0,0.2,0,0.2c0,0.5,0.2,0.7,0.6,0.7c0.3,0,0.7-0.2,0.9-0.3l0.3,0.4
	c-0.3,0.3-0.8,0.4-1.2,0.4c-0.7,0-1.1-0.4-1.1-1.2c0-1,0.5-2.2,1.6-2.2C117.4,27.4,117.8,27.7,117.8,28.3z M117.3,28.3
	c0-0.3-0.2-0.4-0.6-0.4c-0.6,0-0.9,0.5-1,1c0.1,0,0.2,0,0.3,0C117.1,28.9,117.3,28.5,117.3,28.3z M127.2,27.8
	c0.1-0.6,0.5-1.2,1.2-1.2c0.5,0,0.8,0.3,0.9,0.7l0.6-0.2c-0.2-0.6-0.7-1-1.4-1c-1.1,0-1.6,0.8-1.8,1.6l-0.2,1.2c0,0.1,0,0.3,0,0.4
	c0,0.8,0.5,1.4,1.4,1.4c0.7,0,1.4-0.3,1.7-1l-0.5-0.3c-0.2,0.4-0.7,0.7-1.1,0.7c-0.7,0-0.9-0.4-0.9-0.9c0-0.1,0-0.2,0-0.3
	L127.2,27.8z M133.5,28.6c0,1-0.4,2.2-1.6,2.2c-0.8,0-1.2-0.4-1.2-1.1c0-1.2,0.5-2.2,1.6-2.2C133.1,27.4,133.5,27.9,133.5,28.6z
	 M133,28.6c0-0.5-0.3-0.7-0.7-0.7c-0.8,0-1,1-1,1.7c0,0.3,0.1,0.7,0.7,0.7C132.7,30.2,133,29.3,133,28.6z M136.9,27.4
	c-0.3,0-0.7,0.1-1,0.4l0,0l0.1-0.4h-0.5l-0.6,3.3h0.5l0.4-2c0.1-0.5,0.5-0.8,0.9-0.8c0.6,0,0.6,0.4,0.5,0.8l-0.4,2h0.5l0.4-2.2
	C137.9,27.8,137.5,27.4,136.9,27.4z M141.2,27.4c-0.3,0-0.7,0.1-1,0.4l0,0l0.1-0.4h-0.5l-0.6,3.3h0.5l0.4-2c0.1-0.5,0.5-0.8,0.9-0.8
	c0.6,0,0.6,0.4,0.5,0.8l-0.4,2h0.5l0.4-2.2C142.2,27.8,141.8,27.4,141.2,27.4z M146.3,28.3c0,0.5-0.4,1.1-1.9,1.1
	c-0.1,0-0.2,0-0.3,0c0,0.1,0,0.2,0,0.2c0,0.5,0.2,0.7,0.6,0.7c0.3,0,0.7-0.2,0.9-0.3l0.3,0.4c-0.3,0.3-0.8,0.4-1.2,0.4
	c-0.7,0-1.1-0.4-1.1-1.2c0-1,0.5-2.2,1.6-2.2C145.9,27.4,146.3,27.7,146.3,28.3z M145.7,28.3c0-0.3-0.2-0.4-0.6-0.4
	c-0.6,0-0.9,0.5-1,1c0.1,0,0.2,0,0.3,0C145.6,28.9,145.7,28.5,145.7,28.3z M147.5,29.5c0,0.7,0.4,1.2,1.1,1.2c0.4,0,0.9-0.2,1.2-0.4
	l-0.3-0.4c-0.2,0.1-0.5,0.3-0.8,0.3c-0.5,0-0.7-0.3-0.7-0.8c0-0.7,0.3-1.5,1.1-1.5c0.3,0,0.5,0.1,0.7,0.3l0.4-0.4
	c-0.2-0.3-0.6-0.5-1-0.5C148.1,27.4,147.5,28.4,147.5,29.5z M152.3,27.9h0.5l0.1-0.5h-0.5l0.2-0.8H152l-0.2,0.8h-0.4l-0.1,0.5h0.4
	l-0.4,2c-0.1,0.5,0.2,0.8,0.6,0.8h0.4l0.1-0.5h-0.3c-0.3,0-0.3-0.2-0.2-0.4L152.3,27.9z M67.9,28.1c-0.4,0-0.7,0.3-0.7,0.7
	s0.3,0.7,0.7,0.7s0.7-0.3,0.7-0.7S68.3,28.1,67.9,28.1z M122.2,28.1c-0.4,0-0.7,0.3-0.7,0.7s0.3,0.7,0.7,0.7s0.7-0.3,0.7-0.7
	S122.6,28.1,122.2,28.1z"/>
</svg>
